<svg class="animated" id="freepik_stories-instruction-manual" xmlns="http://www.w3.org/2000/svg" viewBox="0 0 500 500" version="1.1" xmlns:xlink="http://www.w3.org/1999/xlink" xmlns:svgjs="http://svgjs.com/svgjs"><style>svg#freepik_stories-instruction-manual:not(.animated) .animable {opacity: 0;}svg#freepik_stories-instruction-manual.animated #freepik--instruction-manual--inject-19 {animation: 1.5s Infinite  linear floating;animation-delay: 0s;}svg#freepik_stories-instruction-manual.animated #freepik--Graphics--inject-19 {animation: 1.5s Infinite  linear floating;animation-delay: 0s;}svg#freepik_stories-instruction-manual.animated #freepik--Character--inject-19 {animation: 1s 1 forwards cubic-bezier(.36,-0.01,.5,1.38) slideLeft;animation-delay: 0s;}            @keyframes floating {                0% {                    opacity: 1;                    transform: translateY(0px);                }                50% {                    transform: translateY(-10px);                }                100% {                    opacity: 1;                    transform: translateY(0px);                }            }                    @keyframes slideLeft {                0% {                    opacity: 0;                    transform: translateX(-30px);                }                100% {                    opacity: 1;                    transform: translateX(0);                }            }        </style><g id="freepik--background-complete--inject-19" class="animable" style="transform-origin: 250px 228.23px;"><rect x="416.78" y="398.49" width="33.12" height="0.25" style="fill: rgb(235, 235, 235); transform-origin: 433.34px 398.615px;" id="el16f9273hadp" class="animable"></rect><rect x="322.53" y="401.21" width="8.69" height="0.25" style="fill: rgb(235, 235, 235); transform-origin: 326.875px 401.335px;" id="elvmmxykeh3m" class="animable"></rect><rect x="396.59" y="389.21" width="19.19" height="0.25" style="fill: rgb(235, 235, 235); transform-origin: 406.185px 389.335px;" id="elqmd2xmf3ycd" class="animable"></rect><rect x="52.46" y="390.89" width="43.19" height="0.25" style="fill: rgb(235, 235, 235); transform-origin: 74.055px 391.015px;" id="el6vyujpcg4kp" class="animable"></rect><rect x="104.56" y="390.89" width="6.33" height="0.25" style="fill: rgb(235, 235, 235); transform-origin: 107.725px 391.015px;" id="elotgsgbpg65a" class="animable"></rect><rect x="131.47" y="395.11" width="93.68" height="0.25" style="fill: rgb(235, 235, 235); transform-origin: 178.31px 395.235px;" id="elh94jih5j4v8" class="animable"></rect><path d="M237,337.8H43.91a5.71,5.71,0,0,1-5.7-5.71V60.66A5.71,5.71,0,0,1,43.91,55H237a5.71,5.71,0,0,1,5.71,5.71V332.09A5.71,5.71,0,0,1,237,337.8ZM43.91,55.2a5.46,5.46,0,0,0-5.45,5.46V332.09a5.46,5.46,0,0,0,5.45,5.46H237a5.47,5.47,0,0,0,5.46-5.46V60.66A5.47,5.47,0,0,0,237,55.2Z" style="fill: rgb(235, 235, 235); transform-origin: 140.46px 196.4px;" id="el1fvgz5v5gqf" class="animable"></path><path d="M453.31,337.8H260.21a5.72,5.72,0,0,1-5.71-5.71V60.66A5.72,5.72,0,0,1,260.21,55h193.1A5.71,5.71,0,0,1,459,60.66V332.09A5.71,5.71,0,0,1,453.31,337.8ZM260.21,55.2a5.47,5.47,0,0,0-5.46,5.46V332.09a5.47,5.47,0,0,0,5.46,5.46h193.1a5.47,5.47,0,0,0,5.46-5.46V60.66a5.47,5.47,0,0,0-5.46-5.46Z" style="fill: rgb(235, 235, 235); transform-origin: 356.75px 196.4px;" id="elytcryx5m21" class="animable"></path><rect y="382.4" width="500" height="0.25" style="fill: rgb(235, 235, 235); transform-origin: 250px 382.525px;" id="el2f23funet1j" class="animable"></rect><path d="M70.86,282c-5.48,2.15-10.1,6.06-14.12,10.37-6.63,7.12-12.13,17-9.13,26.28,1.42,4.39,6.13,8.47,10.33,6.57,3.25-1.47,4.25-5.59,4.35-9.15s-.24-7.43,1.75-10.4c2.5-3.74,8.15-4.48,12.08-2.28s6.21,6.64,6.82,11.11a21.22,21.22,0,0,1-3.46,14.69c-2.51,3.69-6.22,6.62-7.88,10.76-2.24,5.56-.27,11.83,1.71,17.49a2.38,2.38,0,0,0,.52,1,2,2,0,0,0,1,.43A7,7,0,0,0,82.78,352c-.12-2.34-1.46-4.49-1.56-6.83-.19-4.64,4.22-7.91,7.44-11.25,8.79-9.15,10.12-23.05,9.74-35.73-.11-3.53-.34-7.18-1.91-10.34C92.56,279.83,78.1,279.1,70.86,282Z" style="fill: rgb(235, 235, 235); transform-origin: 72.6135px 319.69px;" id="elj8v7gwh8awn" class="animable"></path><path d="M80.89,363.29a8.55,8.55,0,0,0-5.5,10.31,9.15,9.15,0,0,0,10.18,6.06A9.31,9.31,0,0,0,91.91,375a8.74,8.74,0,0,0-1.17-10C88.27,362.47,80.89,363.29,80.89,363.29Z" style="fill: rgb(224, 224, 224); transform-origin: 84.0332px 371.475px;" id="el8v4y80oyn9o" class="animable"></path><path d="M61.13,120.78l-6.56-2.11-6.89,6.26A11.3,11.3,0,0,1,61.9,112l12.93-11.74,10.34-9.39L98.1,79.15a11.3,11.3,0,0,1,14.22-12.91l-6.89,6.26,1.46,6.73,6.56,2.1,6.89-6.25A11.29,11.29,0,0,1,106.12,88L93.19,99.72l-10.34,9.4L69.92,120.85A11.29,11.29,0,0,1,55.7,133.76l6.89-6.25Z" style="fill: rgb(224, 224, 224); transform-origin: 84.0104px 100.002px;" id="el27k5u7nzm8p" class="animable"></path><g id="el7kpg0zmyppe"><path d="M61.13,120.78l-6.56-2.11-6.89,6.26A11.3,11.3,0,0,1,61.9,112l12.93-11.74,10.34-9.39L98.1,79.15a11.3,11.3,0,0,1,14.22-12.91l-6.89,6.26,1.46,6.73,6.56,2.1,6.89-6.25A11.29,11.29,0,0,1,106.12,88L93.19,99.72l-10.34,9.4L69.92,120.85A11.29,11.29,0,0,1,55.7,133.76l6.89-6.25Z" style="fill: rgb(224, 224, 224); opacity: 0.4; transform-origin: 84.0104px 100.002px;" class="animable"></path></g><path d="M60,81.47,50.8,69.93l6.35-5.77L67.76,74.39,69,77.15a8.94,8.94,0,0,0,1.52,2.32l12.74,14-5.8,5.27-12.74-14A9,9,0,0,0,62.59,83Z" style="fill: rgb(224, 224, 224); transform-origin: 67.03px 81.45px;" id="elp52bgqsisi" class="animable"></path><g id="eleg3mf73v85r"><path d="M60,81.47,50.8,69.93l6.35-5.77L67.76,74.39,69,77.15a8.94,8.94,0,0,0,1.52,2.32l12.74,14-5.8,5.27-12.74-14A9,9,0,0,0,62.59,83Z" style="fill: rgb(245, 245, 245); opacity: 0.7; transform-origin: 67.03px 81.45px;" class="animable"></path></g><path d="M50.94,70.11l-.14-.18,6.35-5.77.17.16c.44.88-.41,2.64-2.06,4.14S51.78,70.63,50.94,70.11Z" style="fill: rgb(224, 224, 224); transform-origin: 54.1176px 67.2222px;" id="el4wlnqi8spqe" class="animable"></path><path d="M82.32,106.1l-3.83-4.21-.25.23a1.49,1.49,0,0,1-2-2.21l8.32-7.55a1.49,1.49,0,1,1,2,2.21l-.25.23L90.13,99a4.41,4.41,0,0,1,4,1.63L116.16,125c2.63,2.9,1.09,6-1.8,8.59s-6.1,3.86-8.72,1L83.56,110.2A4.42,4.42,0,0,1,82.32,106.1Z" style="fill: rgb(224, 224, 224); transform-origin: 96.6308px 114.097px;" id="elplfi9r15xfa" class="animable"></path><g id="elc6cxii5avvt"><path d="M82.32,106.1l-3.83-4.21-.25.23a1.49,1.49,0,0,1-2-2.21l8.32-7.55a1.49,1.49,0,1,1,2,2.21l-.25.23L90.13,99a4.41,4.41,0,0,1,4,1.63L116.16,125c2.63,2.9,1.09,6-1.8,8.59s-6.1,3.86-8.72,1L83.56,110.2A4.42,4.42,0,0,1,82.32,106.1Z" style="fill: rgb(235, 235, 235); opacity: 0.4; transform-origin: 96.6308px 114.097px;" class="animable"></path></g><g id="ele0gkhibzvv"><polygon points="396.18 129.02 406.57 134.1 411.3 131.74 395.14 123.83 396.18 129.02" style="fill: rgb(245, 245, 245); opacity: 0.7; transform-origin: 403.22px 128.965px;" class="animable"></polygon></g><path d="M402.83,75a23.57,23.57,0,0,0-.6,19.24,15.46,15.46,0,0,1-.25,12.72l-.79,1.61,18.48,9,.79-1.61a15.45,15.45,0,0,1,9.88-8,23.58,23.58,0,0,0,2.93-44.4A23.75,23.75,0,0,0,402.83,75Z" style="fill: rgb(245, 245, 245); transform-origin: 424.027px 89.6525px;" id="elroeaun2vb3g" class="animable"></path><g id="elujne35xw08"><rect x="409.3" y="104.23" width="24.74" height="1.42" style="fill: rgb(224, 224, 224); transform-origin: 421.67px 104.94px; transform: rotate(-52.39deg);" class="animable"></rect></g><g id="el7b59a86bhuu"><rect x="397.58" y="98.49" width="24.74" height="1.42" style="fill: rgb(224, 224, 224); transform-origin: 409.95px 99.2px; transform: rotate(-75.5476deg);" class="animable"></rect></g><polygon points="413.93 99.4 418.77 96.02 419.07 101.91 426.59 98.73 426.03 97.42 420.38 99.81 420.06 93.38 414.78 97.07 413.2 91.14 411.83 91.51 413.93 99.4" style="fill: rgb(224, 224, 224); transform-origin: 419.21px 96.525px;" id="elo3t4jvz1zr" class="animable"></polygon><polygon points="401.24 108.43 394.03 123.17 412.46 132.31 419.67 117.57 401.24 108.43" style="fill: rgb(224, 224, 224); transform-origin: 406.85px 120.37px;" id="elj283wddp8ys" class="animable"></polygon><path d="M409.89,364.6a291.33,291.33,0,0,1-4.54-52.9c0-8.95,1.23-25.42,12.73-27.53,11.19-2.05,10.73,12.35,10.46,19.73C428.15,314.6,409.48,362.35,409.89,364.6Z" style="fill: rgb(235, 235, 235); transform-origin: 416.991px 324.286px;" id="eltyldltzpss9" class="animable"></path><path d="M412.62,372.06a7.86,7.86,0,0,1,.93,10.71,8.41,8.41,0,0,1-10.81,1.44,8.53,8.53,0,0,1-3.69-6.21,8.07,8.07,0,0,1,4.6-8C406.67,368.7,412.62,372.06,412.62,372.06Z" style="fill: rgb(224, 224, 224); transform-origin: 407.126px 377.627px;" id="ele9kny6hp1vr" class="animable"></path></g><g id="freepik--Shadow--inject-19" class="animable" style="transform-origin: 250px 415.69px;"><ellipse id="freepik--path--inject-19" cx="250" cy="415.69" rx="193.89" ry="11.32" style="fill: rgb(245, 245, 245); transform-origin: 250px 415.69px;" class="animable"></ellipse></g><g id="freepik--instruction-manual--inject-19" class="animable" style="transform-origin: 248.962px 187.005px;"><path d="M247,94.68l136.7-27a6.35,6.35,0,0,1,7.6,5.48l24.36,236.51a6.29,6.29,0,0,1-6.25,6.86L247,318.76Z" style="fill: rgb(144, 202, 249); transform-origin: 331.343px 193.153px;" id="el4k63hep0g8g" class="animable"></path><path d="M246.51,95.33s92.56-20.86,132.83-18.44l19.52,228.48s-30.64-8-60-2.4c-30.19,5.75-92.36,15.79-92.36,15.79Z" style="fill: rgb(144, 202, 249); transform-origin: 322.68px 197.727px;" id="elp2me6j8n5c" class="animable"></path><g id="el6c3prvhoog9"><path d="M246.51,95.33s92.56-20.86,132.83-18.44l19.52,228.48s-30.64-8-60-2.4c-30.19,5.75-92.36,15.79-92.36,15.79Z" style="fill: rgb(255, 255, 255); opacity: 0.7; transform-origin: 322.68px 197.727px;" class="animable"></path></g><path d="M258.72,90.35s50.33-20.85,82.2-22.66L373,65.87l18.25,231.6s-29.89-12.14-60.54-4.62-70.06,20.59-83.53,25.44V94.6Z" style="fill: rgb(144, 202, 249); transform-origin: 319.215px 192.08px;" id="el9hhkc1n8t0r" class="animable"></path><g id="elubbvdfc2wh"><path d="M258.89,90.35S309.23,69.5,341.1,67.69l32.09-1.82,18.25,231.6s-29.9-12.14-60.54-4.62-70.06,20.59-83.53,25.44V94.6Z" style="fill: rgb(255, 255, 255); opacity: 0.8; transform-origin: 319.405px 192.08px;" class="animable"></path></g><path d="M247.19,94.68l-133.67-27a6.24,6.24,0,0,0-7.44,5.48L82.27,309.69a6.24,6.24,0,0,0,6.11,6.86l158.82,2.21Z" style="fill: rgb(144, 202, 249); transform-origin: 164.72px 193.159px;" id="elef4smczcfz4" class="animable"></path><path d="M247.19,94.68S161,63.14,121,60.77L100.72,304.31s31.18-8.29,60.2-2.12,86.28,16.57,86.28,16.57Z" style="fill: rgb(144, 202, 249); transform-origin: 173.96px 189.765px;" id="ell19axne642" class="animable"></path><g id="el21afxevc0nr"><path d="M247.19,94.68S161,63.14,121,60.77L100.72,304.31s31.18-8.29,60.2-2.12,86.28,16.57,86.28,16.57Z" style="fill: rgb(255, 255, 255); opacity: 0.6; transform-origin: 173.96px 189.765px;" class="animable"></path></g><path d="M237.45,89.42s-47.78-25.16-77.88-29.66l-30.19-4.51L112.29,283.73s28.05-9.16,56.92,1.32,66.4,27.5,79.23,33.71V94.68Z" style="fill: rgb(144, 202, 249); transform-origin: 180.365px 187.005px;" id="elhzlylw467vo" class="animable"></path><g id="elj4fri28aqkg"><path d="M237.45,89.42s-47.78-25.16-77.88-29.66l-30.19-4.51L112.29,283.73s28.05-9.16,56.92,1.32,66.4,27.5,79.23,33.71V94.68Z" style="fill: rgb(255, 255, 255); opacity: 0.7; transform-origin: 180.365px 187.005px;" class="animable"></path></g><path d="M270.32,162v-.7c0-6.78-.17-13.67-.35-20.33-.16-5.93-.33-12.06-.35-18.09v-.35l.33-.12a352.4,352.4,0,0,1,39.18-12l.59-.14,0,.61c.36,7.29.6,14.7.82,21.87.17,5.33.34,10.85.57,16.27v.4l-.39.1c-14.59,3.68-28.29,8.27-39.76,12.28Zm.3-38.77c0,5.91.19,11.9.35,17.71.17,6.44.35,13.09.35,19.65,11.26-3.92,24.59-8.37,38.79-12-.22-5.29-.38-10.67-.55-15.87-.22-7-.44-14.16-.79-21.25A348,348,0,0,0,270.62,123.25Z" style="fill: rgb(144, 202, 249); transform-origin: 290.365px 136.135px;" id="elntlcmqt7hw" class="animable"></path><path d="M293,131.19a3.11,3.11,0,0,0-2.14,2.84c0,1.12.06,1.69.09,2.82a5.37,5.37,0,0,0,1.84-1.52,2,2,0,0,0,.27-1,.7.7,0,0,1,.6-.64l2.31-.31a.78.78,0,0,1,1,.74c0,.66,0,1,0,1.65a1.61,1.61,0,0,1-1.26,1.43c-2.08.45-3,.65-4.85,1.06h0a2.35,2.35,0,0,0,2.2,2.47c2.54.19,4,.26,6.9.44,4.21-.49,6.5-.76,10.33-.89-.09-2.8-.13-4.17-.21-6.87-2.2-3.94-3.38-5.72-5.76-9.34a3.83,3.83,0,0,0-3.06-1.9h0a5.78,5.78,0,0,0-3.93-1.56h-.14a7.88,7.88,0,0,0-4.27-.22h0a.91.91,0,0,0-.63.62,1.3,1.3,0,0,0,.7,1.79c.94.34,2.73,2.37,3.92,3.74a9.69,9.69,0,0,1,1.73,2.82h0C296.28,130.12,295.11,130.5,293,131.19Z" style="fill: rgb(38, 50, 56); transform-origin: 300.573px 130.682px;" id="elawfkzedajen" class="animable"></path><path d="M286.9,131.8a.36.36,0,0,1-.47-.17,10.28,10.28,0,0,0-1.52-2.8.51.51,0,0,1,.17-.65.46.46,0,0,1,.65,0,11.19,11.19,0,0,1,1.59,3,.54.54,0,0,1-.31.61Z" style="fill: rgb(38, 50, 56); transform-origin: 286.094px 129.938px;" id="elcxi8qqvvzo6" class="animable"></path><path d="M287,137.9a3.52,3.52,0,0,1-1.37,2.27c-1.29,1-3,1.1-3.68.15a1.9,1.9,0,0,1-.2-.37,3,3,0,0,1,1.31-3.21,3.44,3.44,0,0,1,2.37-.79,1.67,1.67,0,0,1,1.26.67,1.37,1.37,0,0,1,.13.2A2,2,0,0,1,287,137.9Z" style="fill: rgb(255, 255, 255); transform-origin: 284.342px 138.462px;" id="elua6rpju72eb" class="animable"></path><path d="M287,137.9a3.52,3.52,0,0,1-1.37,2.27c-1.29,1-3,1.1-3.68.15a1.9,1.9,0,0,1-.2-.37,3.51,3.51,0,0,1,1.42-2.3c1.32-1,2.94-1.07,3.63-.12A1.65,1.65,0,0,1,287,137.9Z" style="fill: rgb(38, 50, 56); transform-origin: 284.375px 138.918px;" id="elg2gxkd53huj" class="animable"></path><path d="M292.29,137.35a3.48,3.48,0,0,1-1.25,2.2c-1.13.93-2.64.92-3.31-.05a1.85,1.85,0,0,1-.19-.37,2.69,2.69,0,0,1,.59-2.51,3.68,3.68,0,0,1,1.55-1.16,1.84,1.84,0,0,1,2.36.59A2,2,0,0,1,292.29,137.35Z" style="fill: rgb(255, 255, 255); transform-origin: 289.877px 137.746px;" id="ellhzvf5oi1ns" class="animable"></path><path d="M292.29,137.35a3.48,3.48,0,0,1-1.25,2.2c-1.13.93-2.64.92-3.31-.05a1.85,1.85,0,0,1-.19-.37,3.46,3.46,0,0,1,1.33-2.24c1.22-1,2.64-.92,3.25.08A1.84,1.84,0,0,1,292.29,137.35Z" style="fill: rgb(38, 50, 56); transform-origin: 289.915px 138.208px;" id="eluz0koymxo6" class="animable"></path><path d="M290.26,133a3.43,3.43,0,0,1-1.48,2.33c-1.28.89-2.85.81-3.45-.21a1.63,1.63,0,0,1-.11-.23,3,3,0,0,1,1.45-3.29c1.34-.92,2.85-.79,3.4.26A2,2,0,0,1,290.26,133Z" style="fill: rgb(255, 255, 255); transform-origin: 287.71px 133.465px;" id="el6hg4x61641c" class="animable"></path><path d="M288.78,135.31c-1.28.89-2.85.81-3.45-.21a1.63,1.63,0,0,1-.11-.23,3.52,3.52,0,0,1,1.56-2.38c1.33-.91,2.83-.78,3.38.26a2.29,2.29,0,0,1,.1.23A3.43,3.43,0,0,1,288.78,135.31Z" style="fill: rgb(38, 50, 56); transform-origin: 287.74px 133.903px;" id="el9dp25p10hvo" class="animable"></path><path d="M285.86,131.36a.45.45,0,0,1,0,.11c-.17,1.51-2.92,3.39-6.29,4.33a7.06,7.06,0,0,1-4.94-.43,5.38,5.38,0,0,1-1.09-.66s2.8-3.66,6.23-4.57a13.21,13.21,0,0,1,1.41-.3,11.88,11.88,0,0,1,1.39-.12C284.56,129.67,285.89,130.28,285.86,131.36Z" style="fill: rgb(144, 202, 249); transform-origin: 279.702px 132.888px;" id="elx5ga0ayjt1m" class="animable"></path><g id="el8azr5sj0d48"><g style="opacity: 0.2; transform-origin: 280.235px 133.491px;" class="animable"><path d="M279.56,135.8a7.06,7.06,0,0,1-4.94-.43,13.2,13.2,0,0,1,5.77-4c2.41-.65,4.48-.56,5.46.07C285.68,133,282.93,134.86,279.56,135.8Z" id="eloxxleslajmk" class="animable" style="transform-origin: 280.235px 133.491px;"></path></g></g><path d="M296.41,120.6a10.35,10.35,0,0,1-.25,1.5,11.67,11.67,0,0,1-2.66,5.26c-2.38,2.55-4.87,3.88-6.08,3.35a.72.72,0,0,1-.24-.14c-.74-.6-.38-2.19.79-4a15.07,15.07,0,0,1,1-1.45c.29-.35.59-.71.92-1.07A12.58,12.58,0,0,1,296.41,120.6Z" style="fill: rgb(144, 202, 249); transform-origin: 291.602px 125.713px;" id="elpzrqhc9jz1a" class="animable"></path><g id="elmds6yc3xfgq"><g style="opacity: 0.2; transform-origin: 291.79px 126.463px;" class="animable"><path d="M296.16,122.1a11.67,11.67,0,0,1-2.66,5.26c-2.38,2.55-4.87,3.88-6.08,3.35.06-1.3,1.22-3.38,3.08-5.39A12,12,0,0,1,296.16,122.1Z" id="eljouuov8x4b" class="animable" style="transform-origin: 291.79px 126.463px;"></path></g></g><path d="M285,128.54c-.39,1-2.35,1.75-4.38,1.61a3.79,3.79,0,0,1-2.92-2.22s2.34-1.82,4.36-1.63S285.41,127.5,285,128.54Z" style="fill: rgb(144, 202, 249); transform-origin: 281.387px 128.226px;" id="elzs7kzzd9k1h" class="animable"></path><path d="M285.51,128.24c.92.25,2.53-1.14,3.63-3.19a6.31,6.31,0,0,0,.38-4.36,9.1,9.1,0,0,0-3.68,3.34C284.73,126.14,284.58,128,285.51,128.24Z" style="fill: rgb(144, 202, 249); transform-origin: 287.322px 124.48px;" id="eljoz2xdb0n9i" class="animable"></path><path d="M298.7,142.75a20.29,20.29,0,0,1-1.39,1.56c-1.43,1.47-3.89,3.6-6,4.18-3.31.9-6.94.52-7.18-1.37a1.23,1.23,0,0,1,0-.19c0-2.06,3.62-4.88,7.21-5.89S298.7,142.75,298.7,142.75Z" style="fill: rgb(144, 202, 249); transform-origin: 291.413px 144.885px;" id="el8rs61pq6dzy" class="animable"></path><g id="elw0w0h3fw5gq"><g style="opacity: 0.2; transform-origin: 290.72px 145.817px;" class="animable"><path d="M297.31,144.31c-1.43,1.47-3.89,3.6-6,4.18-3.31.9-6.94.52-7.18-1.37a13.47,13.47,0,0,1,6.59-4.21C293.43,142.12,296.12,143.54,297.31,144.31Z" id="eltt038z31178" class="animable" style="transform-origin: 290.72px 145.817px;"></path></g></g><path d="M282.64,147.08a1.3,1.3,0,0,1-.18.23c-1.55,1.83-5.36,2.11-8.42.56-2-1-2.69-3.24-3-4.73a9.5,9.5,0,0,1-.19-1.55s4.95-2.2,8.29-.76S284.07,145.05,282.64,147.08Z" style="fill: rgb(144, 202, 249); transform-origin: 277.008px 144.609px;" id="el9qeevr13p95" class="animable"></path><g id="elm7ybbk6zgva"><g style="opacity: 0.2; transform-origin: 276.75px 145.558px;" class="animable"><path d="M282.46,147.31c-1.55,1.83-5.36,2.11-8.42.56-2-1-2.69-3.24-3-4.73,1.5-.53,4.92-1.49,7.39-.41S282.4,145.59,282.46,147.31Z" id="el0v87mb7c2gsd" class="animable" style="transform-origin: 276.75px 145.558px;"></path></g></g><path d="M270.85,157.38c-.24.07-.43-.1-.43-.38a.65.65,0,0,1,.42-.62c8.12-2.49,16.13-12.67,16.27-20.46a.65.65,0,0,1,.47-.54c.25-.07.45.07.44.3C287.58,145.21,279.78,153.94,270.85,157.38Z" style="fill: rgb(38, 50, 56); transform-origin: 279.22px 146.379px;" id="el0vglb6suuow" class="animable"></path><path d="M270.77,205.5v-.68c-.07-10.11-.2-20.39-.33-30.33l-.1-7.79.34-.12c15.59-5.42,28-9.18,40.15-12.2l.58-.15,0,.61c.73,13.4,1.23,27,1.62,38.58v.42l-.4.09c-13.95,3.2-27.45,6.92-41.26,11.37Zm.58-38.1.09,7.08c.12,9.72.25,19.76.32,29.66,13.48-4.33,26.68-8,40.29-11.09-.38-11.3-.86-24.51-1.57-37.55C298.62,158.46,286.5,162.15,271.35,167.4Z" style="fill: rgb(144, 202, 249); transform-origin: 291.685px 179.865px;" id="elrr9q7rvwjws" class="animable"></path><path d="M275.42,203.86c3.07-3.47,4.75-5.33,8.28-9.24,5.77-1.69,8.47-2.22,13.86-3.52,2.07-2.66,3.17-4.19,5.27-6.79a1.82,1.82,0,0,1,.89-.59h0c1-.3,1.69.62,1.14,1.62-1.82,3.29-2.77,5.37-4.61,8.54-4.36,1.6-6.18,2.13-10.67,3.87L286.72,200C282,201.52,279.59,202.42,275.42,203.86Z" style="fill: rgb(38, 50, 56); transform-origin: 290.237px 193.761px;" id="elunbkdken68" class="animable"></path><path d="M299.45,171.32c.53,6.93.71,10.45.95,19-6.52,1.82-9.47,2.38-16.28,4.53-.18-8.19.09-12.2-.05-19.1C290.64,173.48,293,173,299.45,171.32Z" style="fill: rgb(144, 202, 249); transform-origin: 292.228px 183.085px;" id="eloho7wlulp4f" class="animable"></path><path d="M286.59,183.13a4.09,4.09,0,0,0,.26,1.43l-2.68.85c0-1.26,0-1.87,0-3.08,1.07-.35,1.61-.53,2.68-.86A5.27,5.27,0,0,0,286.59,183.13Z" style="fill: rgb(38, 50, 56); transform-origin: 285.51px 183.44px;" id="elfk6puzcoj6w" class="animable"></path><path d="M299.91,177.94c.07,1.19.11,1.8.17,3l-2.51.67a5.18,5.18,0,0,0,.16-1.56,4.29,4.29,0,0,0-.35-1.48Z" style="fill: rgb(38, 50, 56); transform-origin: 298.73px 179.775px;" id="elc5rv83ag93" class="animable"></path><g id="elf46wxcj9xun"><path d="M297.73,180.09a5.18,5.18,0,0,1-.16,1.56,7.06,7.06,0,0,1-5,5.2c-2.63.68-5-.32-5.73-2.29a3.87,3.87,0,0,1-.26-1.43,5.22,5.22,0,0,1,.25-1.66,8.1,8.1,0,0,1,5.31-5.09,4.24,4.24,0,0,1,5.23,2.23A4.07,4.07,0,0,1,297.73,180.09Z" style="opacity: 0.2; transform-origin: 292.158px 181.606px;" class="animable"></path></g><path d="M289.63,180c.09-.11.19-.21.29-.31a.26.26,0,0,0,.09.09l0,0a4.62,4.62,0,0,1,1.86,2l.13.25a7.22,7.22,0,0,0,1.86,2.34,3.94,3.94,0,0,1-3.33-.45C289,183,288.61,181.25,289.63,180Z" style="fill: rgb(255, 255, 255); transform-origin: 291.462px 182.122px;" id="elcyjsufl4x7d" class="animable"></path><path d="M295,183.61a1.61,1.61,0,0,1-.28.3.28.28,0,0,0-.12-.19,6,6,0,0,1-1.69-2.18l-.12-.25a5.09,5.09,0,0,0-1.91-2.12,3.35,3.35,0,0,1,3.18.42A2.88,2.88,0,0,1,295,183.61Z" style="fill: rgb(255, 255, 255); transform-origin: 293.167px 181.428px;" id="eloslsuord4de" class="animable"></path><path d="M299.34,171.35c-1-2-1.45-3-2.38-5-4.66,1.23-6.26,1.57-10.95,3.17-.75,2.5-1.14,3.72-1.94,6.21h0a1.15,1.15,0,0,0-.06.17c6.58-2.22,8.95-2.69,15.39-4.38C299.38,171.44,299.36,171.41,299.34,171.35Z" style="fill: rgb(144, 202, 249); transform-origin: 291.705px 171.125px;" id="el1et3uje0mbk" class="animable"></path><path d="M298.51,165.91c-6,1.6-8,2-14.06,4.11,0-.63,0-1,0-1.6,6-2.1,7.94-2.52,14-4.13C298.44,164.94,298.47,165.26,298.51,165.91Z" style="fill: rgb(38, 50, 56); transform-origin: 291.48px 167.155px;" id="eluybm47iqwi" class="animable"></path><path d="M317.21,148.33l0-.6c-.16-3.17-.31-6.35-.47-9.52-.45-9.39-.92-19.09-1.49-28.63l0-.42.41-.1A186,186,0,0,1,354,103.91h.49l0,.48c.62,10.6,1.49,21.33,2.32,31.7l.6,7.5h-.52a191.45,191.45,0,0,0-39.07,4.61Zm-1-38.39c.56,9.41,1,19,1.47,28.22.15,3,.29,6,.44,8.93a190.78,190.78,0,0,1,38.16-4.49l-.51-6.44c-.83-10.22-1.68-20.79-2.3-31.23A184.1,184.1,0,0,0,316.24,109.94Z" style="fill: rgb(144, 202, 249); transform-origin: 336.33px 126.12px;" id="elo7sh0lyc3l" class="animable"></path><path d="M331.23,135.37a5.56,5.56,0,0,1-3.72,2.89,2,2,0,0,1-1.15-.19c-1.42-.7-1.53-3.08-.28-5.24a6.25,6.25,0,0,1,2.23-2.3,2.78,2.78,0,0,1,2.6-.28C332.36,131,332.5,133.21,331.23,135.37Z" style="fill: rgb(144, 202, 249); transform-origin: 328.655px 134.163px;" id="elc40d5oxwtnr" class="animable"></path><g id="elhbyejyz8m5"><g style="opacity: 0.2; transform-origin: 328.684px 134.176px;" class="animable"><path d="M331.23,135.37a5.56,5.56,0,0,1-3.72,2.89,2,2,0,0,1-1.14-.18,1.75,1.75,0,0,1-.42-.29l-.06-.06a1.46,1.46,0,0,1-.16-.19h0a1.82,1.82,0,0,1-.26-.44h0l-.09-.22a1.05,1.05,0,0,1-.06-.24.72.72,0,0,1-.05-.21c0-.1,0-.21,0-.32a5,5,0,0,1,.17-1.59,7.38,7.38,0,0,1,.47-1.25,4.23,4.23,0,0,1,.22-.42,6.25,6.25,0,0,1,2.23-2.3,2.81,2.81,0,0,1,2.6-.28,1.56,1.56,0,0,1,.41.28,2,2,0,0,1,.56.77A4.8,4.8,0,0,1,331.23,135.37Z" id="elpjwtzba5om" class="animable" style="transform-origin: 328.684px 134.176px;"></path></g></g><path d="M330.62,132.9a6,6,0,0,1-.85,3,6.82,6.82,0,0,1-2.26,2.4,2.06,2.06,0,0,1-1.14-.18,1.75,1.75,0,0,1-.42-.29l-.06-.06a1.46,1.46,0,0,1-.16-.19h0a1.82,1.82,0,0,1-.26-.44h0l-.09-.22a1.05,1.05,0,0,1-.06-.24.72.72,0,0,1-.05-.21c0-.1,0-.21,0-.32a5,5,0,0,1,.17-1.59,6.21,6.21,0,0,1,.47-1.25,4.23,4.23,0,0,1,.22-.42,6.25,6.25,0,0,1,2.23-2.3,2.13,2.13,0,0,1,1.15.19,2,2,0,0,1,1,1.06A3,3,0,0,1,330.62,132.9Z" style="fill: rgb(144, 202, 249); transform-origin: 327.946px 134.446px;" id="elqgb6b4f0rj" class="animable"></path><path d="M331.88,131.3a10.82,10.82,0,0,1-1.26,1.6,11.41,11.41,0,0,1-1.49,1.36,3.65,3.65,0,0,1-.31.24,10.36,10.36,0,0,0-2.6,3.05.62.62,0,0,1-.27.24l-.06-.06a1.46,1.46,0,0,1-.16-.19h0a1.82,1.82,0,0,1-.26-.44h0a10.91,10.91,0,0,1,2.84-3.3l.31-.25a11.47,11.47,0,0,0,1.8-1.75,9.18,9.18,0,0,0,.8-1.13.41.41,0,0,1,.11-.12A1.9,1.9,0,0,1,331.88,131.3Z" style="fill: rgb(38, 50, 56); transform-origin: 328.675px 134.17px;" id="elknnu5iu63v" class="animable"></path><path d="M335.5,124.41a2.67,2.67,0,0,1-.63,0l-.19,0c-.32-.07-.65-.18-1-.28a5.86,5.86,0,0,1-3.68-4.45c-.61-2.63.29-5.28,2.11-6.3a3.26,3.26,0,0,1,.92-.33,1.86,1.86,0,0,1,1,0,2.66,2.66,0,0,1,.79.33,8.37,8.37,0,0,1,3.36,5.24C338.9,121.82,337.75,124.31,335.5,124.41Z" style="fill: rgb(144, 202, 249); transform-origin: 334.102px 118.705px;" id="el7y2eki3e4hk" class="animable"></path><g id="elvuqwoujsasn"><g style="opacity: 0.2; transform-origin: 334.102px 118.705px;" class="animable"><path d="M335.5,124.41a2.67,2.67,0,0,1-.63,0l-.19,0c-.32-.07-.65-.18-1-.28a5.86,5.86,0,0,1-3.68-4.45c-.61-2.63.29-5.28,2.11-6.3a3.26,3.26,0,0,1,.92-.33,1.86,1.86,0,0,1,1,0,2.66,2.66,0,0,1,.79.33,8.37,8.37,0,0,1,3.36,5.24C338.9,121.82,337.75,124.31,335.5,124.41Z" id="el82s07s1etnw" class="animable" style="transform-origin: 334.102px 118.705px;"></path></g></g><path d="M334.87,124.37l-.19,0c-.32-.07-.65-.18-1-.28a5.86,5.86,0,0,1-3.68-4.45c-.61-2.63.25-5.29,2.11-6.3A3,3,0,0,1,334,114a6.7,6.7,0,0,1,1,1.05,9.73,9.73,0,0,1,1.71,3.75C337.36,121.52,336.58,123.75,334.87,124.37Z" style="fill: rgb(144, 202, 249); transform-origin: 333.372px 118.855px;" id="elxa4lkwhsavo" class="animable"></path><path d="M335,115s0,.08,0,.23,0,.19,0,.32,0,0,0,0h0a13.51,13.51,0,0,1-.14,2.49c0,.11,0,.23-.07.35s0,.07,0,.1a2.56,2.56,0,0,1-.05.27c0,.19-.06.28-.11.46a10.51,10.51,0,0,0,0,4.83.44.44,0,0,1,0,.23c-.32-.07-.65-.18-1-.28a11.21,11.21,0,0,1,.06-5.09c.05-.19.07-.28.11-.46s.06-.26.09-.39v0c0-.09,0-.2.06-.3s.07-.48.09-.7a12.92,12.92,0,0,0,.05-1.59h0c0-.1,0-.15,0-.25A11.5,11.5,0,0,0,334,114c0-.18,0-.37-.08-.55A.48.48,0,0,1,334,113a2.66,2.66,0,0,1,.79.33A13.34,13.34,0,0,1,335,115,0,0,0,0,1,335,115Z" style="fill: rgb(38, 50, 56); transform-origin: 334.188px 118.64px;" id="el27chjybjz09" class="animable"></path><path d="M347.35,136.07a3.68,3.68,0,0,1-2.86,1.41,7.72,7.72,0,0,1-4.41-1.16c-2.92-1.72-4.34-4.69-3.13-6.37a2.79,2.79,0,0,1,1.47-1,7.88,7.88,0,0,1,5.87,1.18C347.16,131.83,348.52,134.35,347.35,136.07Z" style="fill: rgb(144, 202, 249); transform-origin: 342.143px 133.147px;" id="elx82c4tn1hvf" class="animable"></path><g id="elqruy69q8yy"><g style="opacity: 0.2; transform-origin: 342.143px 133.161px;" class="animable"><path d="M347.35,136.07a3.39,3.39,0,0,1-.51.56,3.44,3.44,0,0,1-.79.47,4.47,4.47,0,0,1-1.56.38,7.8,7.8,0,0,1-4.41-1.16c-2.91-1.71-4.35-4.71-3.13-6.37a2.28,2.28,0,0,1,.68-.63,2.78,2.78,0,0,1,.76-.34l0,0a7.88,7.88,0,0,1,5.87,1.18C347.15,131.83,348.53,134.35,347.35,136.07Z" id="el83zwwl5zrig" class="animable" style="transform-origin: 342.143px 133.161px;"></path></g></g><path d="M345.91,136.35a3.08,3.08,0,0,1-1.42,1.13,7.72,7.72,0,0,1-4.41-1.16c-2.92-1.72-4.34-4.69-3.13-6.37a2.79,2.79,0,0,1,1.47-1,9.2,9.2,0,0,1,4.43,1.37C345.71,132,347.07,134.58,345.91,136.35Z" style="fill: rgb(144, 202, 249); transform-origin: 341.421px 133.219px;" id="el3d6xv39f1kd" class="animable"></path><path d="M340.25,130.33l-.3-.25.23.18A.23.23,0,0,1,340.25,130.33Z" style="fill: rgb(255, 255, 255); transform-origin: 340.1px 130.205px;" id="ela69kv06py6q" class="animable"></path><path d="M346.84,136.63a3.44,3.44,0,0,1-.79.47c-.17-.1-.35-.2-.51-.31a13.68,13.68,0,0,1-3.47-3.27l-.3-.4-.22-.26a15.91,15.91,0,0,0-1.95-2h0l-.55-.42c-.37-.29-.77-.55-1.18-.81a.47.47,0,0,1-.23-.31l.76-.34c.37.22.72.46,1.06.71l.18.13a.1.1,0,0,0,.05,0l.27.22.3.25h0l.55.47a17.38,17.38,0,0,1,2.45,2.79l0,0a12.72,12.72,0,0,0,2.78,2.44l.61.37A.42.42,0,0,1,346.84,136.63Z" style="fill: rgb(38, 50, 56); transform-origin: 342.24px 133.04px;" id="elmqqmrupiaul" class="animable"></path><path d="M318.37,192.7l0-.61c-.36-8.28-.52-16.68-.68-24.81q-.12-6.9-.29-13.79l0-.4.39-.1a149.61,149.61,0,0,1,39.57-4.62h.46l0,.45c1.09,13.37,1.86,26.92,2.56,39.65l0,.58-.58-.06c-15.65-1.66-27.24.13-40.86,3.55Zm0-38.84q.17,6.7.28,13.4c.16,7.92.32,16.11.65,24.17,12.95-3.22,24.8-5,40-3.48-.68-12.41-1.44-25.57-2.49-38.58A149.46,149.46,0,0,0,318.38,153.86Z" style="fill: rgb(144, 202, 249); transform-origin: 338.89px 170.524px;" id="elrq0u9v6aahn" class="animable"></path><g id="freepik--coffee-machine--inject-19" class="animable" style="transform-origin: 338.903px 169.282px;"><path d="M346.29,177.37a82.29,82.29,0,0,0-13.75,1.39c-1.23-6.1-1.83-8.42-3-13,7.41-1.93,11-2,18-1.89C347.08,168.69,346.81,171.12,346.29,177.37Z" style="fill: rgb(144, 202, 249); transform-origin: 338.54px 171.299px;" id="elml48b5wz6k" class="animable"></path><g id="eljxt7fd268h"><g style="opacity: 0.2; transform-origin: 345.2px 170.86px;" class="animable"><path d="M347.57,164.24c-1.86,0-2.78,0-4.69,0,0,4.66,0,7.08-.05,13.24,1.41-.08,2.09-.1,3.46-.15C346.8,171.31,347.06,168.92,347.57,164.24Z" id="el97h2equ0fz5" class="animable" style="transform-origin: 345.2px 170.86px;"></path></g></g><path d="M351.51,159.69a4,4,0,0,1-1.19,3.16s0,0-.06,0,0,0,0,0a4.68,4.68,0,0,1-2.18,1.15,2.88,2.88,0,0,1-.51.1l-.26,0-.52,0c-6.27,0-9.55-.06-16.07,1.6a5.39,5.39,0,0,1-1.09.18c-2.39.14-4.35-1.17-4.43-3.37a5.54,5.54,0,0,1,1.42-3.64,6.79,6.79,0,0,1,3.57-2.21c6.31-1.48,9.77-1.48,16-1.63A5.16,5.16,0,0,1,351.51,159.69Z" style="fill: rgb(144, 202, 249); transform-origin: 338.361px 160.458px;" id="el3mhv47dzi6m" class="animable"></path><g id="elfgpvtaehemg"><g style="opacity: 0.2; transform-origin: 346.881px 159.621px;" class="animable"><path d="M351.51,159.69a4,4,0,0,1-1.19,3.16s0,0-.06,0a7.93,7.93,0,0,1-2.19,1.18,2.24,2.24,0,0,1-.51.13.15.15,0,0,1-.09,0c-2,0-3,0-5.06,0a4.83,4.83,0,0,0,1.85-.36,3.21,3.21,0,0,0,1.95-3.33c0-.72-.07-1.08-.12-1.8a3.9,3.9,0,0,0-3.85-3.46c1.6-.07,2.38-.09,3.93-.13A5.16,5.16,0,0,1,351.51,159.69Z" id="el1fj5f9sulf" class="animable" style="transform-origin: 346.881px 159.621px;"></path></g></g><path d="M341.31,167.45c.07,1.09.1,1.64.17,2.8a28.93,28.93,0,0,0-5.15.34c-.08-1.17-.11-1.73-.18-2.83A25.85,25.85,0,0,1,341.31,167.45Z" style="fill: rgb(144, 202, 249); transform-origin: 338.815px 169.01px;" id="elxvm6nyyjw0l" class="animable"></path><path d="M341.31,167.45c.07,1.09.1,1.64.17,2.8a28.93,28.93,0,0,0-5.15.34c-.08-1.17-.11-1.73-.18-2.83A25.85,25.85,0,0,1,341.31,167.45Z" style="fill: rgb(144, 202, 249); transform-origin: 338.815px 169.01px;" id="elh682kr7hvan" class="animable"></path><g id="elazezy1fqmw"><g style="opacity: 0.5; transform-origin: 338.815px 169.01px;" class="animable"><path d="M341.31,167.45c.07,1.09.1,1.64.17,2.8a28.93,28.93,0,0,0-5.15.34c-.08-1.17-.11-1.73-.18-2.83A25.85,25.85,0,0,1,341.31,167.45Z" style="fill: rgb(255, 255, 255); transform-origin: 338.815px 169.01px;" id="elsbbeynnc91r" class="animable"></path></g></g><path d="M339.15,167.52c.07,1.09.1,1.65.17,2.82a18.05,18.05,0,0,0-3,.25c-.08-1.17-.11-1.73-.18-2.83A16.28,16.28,0,0,1,339.15,167.52Z" style="fill: rgb(255, 255, 255); transform-origin: 337.73px 169.054px;" id="el5lpp6ckljjh" class="animable"></path><path d="M352.6,179.24a2.08,2.08,0,0,1-.42,1.41,1.49,1.49,0,0,1-1.16.56c-9-.07-13.08.26-23.33,2.27a1.58,1.58,0,0,1-2-1.5,2.2,2.2,0,0,1,.51-1.47,2.28,2.28,0,0,1,1.32-.82c10.22-1.95,14.26-2.33,23.29-2.41A1.92,1.92,0,0,1,352.6,179.24Z" style="fill: rgb(144, 202, 249); transform-origin: 339.147px 180.408px;" id="el9e0ntq1nei8" class="animable"></path><path d="M340.94,159.77a2.4,2.4,0,0,1-2.57,2.32,3.46,3.46,0,0,1-.79-.06,2.18,2.18,0,0,1-2-1.94,2.24,2.24,0,0,1,1.75-2.29,4,4,0,0,1,.78-.13A2.55,2.55,0,0,1,340.94,159.77Z" style="fill: rgb(144, 202, 249); transform-origin: 338.259px 159.873px;" id="elul9japjlaq" class="animable"></path><path d="M340.94,159.77a2.4,2.4,0,0,1-2.57,2.32,3.46,3.46,0,0,1-.79-.06,2.18,2.18,0,0,1-2-1.94,2.24,2.24,0,0,1,1.75-2.29,4,4,0,0,1,.78-.13A2.55,2.55,0,0,1,340.94,159.77Z" style="fill: rgb(255, 255, 255); transform-origin: 338.259px 159.873px;" id="elbuvvjhkublu" class="animable"></path><path d="M339.44,159.82a2.28,2.28,0,0,1-1.86,2.21,2.18,2.18,0,0,1-2-1.94,2.24,2.24,0,0,1,1.75-2.29A2.37,2.37,0,0,1,339.44,159.82Z" style="fill: rgb(255, 255, 255); transform-origin: 337.509px 159.915px;" id="elzvf3c36enqe" class="animable"></path><path d="M342.74,164.28c.08,1.2.12,1.82.19,3.08a35.34,35.34,0,0,0-8.35.7c-.08-1.28-.12-1.89-.2-3.09A34.82,34.82,0,0,1,342.74,164.28Z" style="fill: rgb(144, 202, 249); transform-origin: 338.655px 166.157px;" id="elprz49pzyrxc" class="animable"></path><g id="eladmsy9mgifm"><g style="opacity: 0.5; transform-origin: 338.655px 166.157px;" class="animable"><path d="M342.74,164.28c.08,1.2.12,1.82.19,3.08a35.34,35.34,0,0,0-8.35.7c-.08-1.28-.12-1.89-.2-3.09A34.82,34.82,0,0,1,342.74,164.28Z" style="fill: rgb(255, 255, 255); transform-origin: 338.655px 166.157px;" id="elnyeagfia1ei" class="animable"></path></g></g><path d="M340.15,164.35c.08,1.19.12,1.81.2,3.08a24.83,24.83,0,0,0-5.77.63c-.08-1.28-.12-1.89-.2-3.09A24.84,24.84,0,0,1,340.15,164.35Z" style="fill: rgb(255, 255, 255); transform-origin: 337.365px 166.204px;" id="elhf2tqjpf3nd" class="animable"></path><path d="M345,159.67a1,1,0,0,1-1,1,1.07,1.07,0,0,1-1.13-.92,1,1,0,0,1,1-1A1.06,1.06,0,0,1,345,159.67Z" style="fill: rgb(144, 202, 249); transform-origin: 343.935px 159.71px;" id="ellea2736iou" class="animable"></path><path d="M348.61,159.66a.92.92,0,0,1-1,1,1.11,1.11,0,0,1-1.12-1,.92.92,0,0,1,1-.95A1.08,1.08,0,0,1,348.61,159.66Z" style="fill: rgb(144, 202, 249); transform-origin: 347.552px 159.685px;" id="eljeuwf9c1mv" class="animable"></path><path d="M330.43,161.27a1.33,1.33,0,0,1-1,1.23c-.6.15-1.12-.14-1.15-.67a1.36,1.36,0,0,1,1.05-1.23C329.89,160.45,330.4,160.75,330.43,161.27Z" style="fill: rgb(144, 202, 249); transform-origin: 329.355px 161.55px;" id="elc3cg0h6xfb" class="animable"></path><path d="M345.62,169.59c-1.62,0-2.44,0-4.13.08,0-.52-.05-.77-.08-1.28,1.69,0,2.51-.06,4.13-.07C345.57,168.82,345.59,169.08,345.62,169.59Z" style="fill: rgb(38, 50, 56); transform-origin: 343.515px 168.995px;" id="elkshcxqm1zp" class="animable"></path></g><path d="M342.77,164.62a34.7,34.7,0,0,0-8.34.68A.3.3,0,0,1,334,165a.44.44,0,0,1,.34-.43,34.79,34.79,0,0,1,8.35-.68.4.4,0,0,1,.41.35A.35.35,0,0,1,342.77,164.62Z" style="fill: rgb(38, 50, 56); transform-origin: 338.55px 164.597px;" id="elwxphtftfrup" class="animable"></path><path d="M344,161a1.48,1.48,0,0,1-1.54-1.25,1.31,1.31,0,0,1,1.37-1.3,1.44,1.44,0,0,1,1.53,1.25A1.29,1.29,0,0,1,344,161Zm-.12-1.89a.62.62,0,0,0-.65.62.69.69,0,0,0,.73.59.6.6,0,0,0,.64-.61A.69.69,0,0,0,343.9,159.08Z" style="fill: rgb(255, 255, 255); transform-origin: 343.91px 159.724px;" id="elkdlqb7gtmyh" class="animable"></path><path d="M347.65,161a1.5,1.5,0,0,1-1.52-1.29,1.27,1.27,0,0,1,1.34-1.29,1.48,1.48,0,0,1,1.52,1.29A1.25,1.25,0,0,1,347.65,161Zm-.13-1.91a.6.6,0,0,0-.63.62.7.7,0,0,0,.71.61.6.6,0,0,0,.64-.61A.72.72,0,0,0,347.52,159Z" style="fill: rgb(255, 255, 255); transform-origin: 347.56px 159.711px;" id="elu01xa5e13wm" class="animable"></path><path d="M329.41,162.84c-.82.21-1.53-.19-1.56-.91a1.84,1.84,0,0,1,1.42-1.67c.82-.2,1.5.21,1.54.92A1.8,1.8,0,0,1,329.41,162.84Zm-.1-1.9a.85.85,0,0,0-.67.79.53.53,0,0,0,.73.43.86.86,0,0,0,.67-.79C330,161,329.7,160.84,329.31,160.94Z" style="fill: rgb(255, 255, 255); transform-origin: 329.33px 161.553px;" id="elrlxld0vp94" class="animable"></path><path d="M338.14,159.15a.38.38,0,0,1-.43-.31c0-.44,0-.65-.07-1.09,0-.18.16-.33.39-.34a.39.39,0,0,1,.44.31c0,.43,0,.65.07,1.09C338.55,159,338.38,159.14,338.14,159.15Z" style="fill: rgb(38, 50, 56); transform-origin: 338.09px 158.28px;" id="elms39ad072j" class="animable"></path><path d="M342.28,172l-.51,0c0-.09,0-.14,0-.24a32.89,32.89,0,0,0-5.42.39c.08,1.19.11,1.81.19,3.09a2.56,2.56,0,0,0,2.64,2.63l.38,0a2.64,2.64,0,0,0,2.21-1.85.68.68,0,0,0,.3-.23l.91-1.12a.86.86,0,0,0,.18-.6c0-.52,0-.78-.07-1.29A.8.8,0,0,0,342.28,172Zm.27,2.08a.16.16,0,0,1,0,.12l-.58.71v-.09c-.05-.88-.07-1.31-.12-2.16l.51,0a.17.17,0,0,1,.16.15C342.51,173.31,342.52,173.57,342.55,174.09Z" style="fill: rgb(38, 50, 56); transform-origin: 339.756px 174.815px;" id="elpd4jpfvmg6o" class="animable"></path><path d="M335.59,178.83a74.83,74.83,0,0,1,7.58-.75,1.33,1.33,0,0,0,.86-.58,73.39,73.39,0,0,0-9.31.92A1.14,1.14,0,0,0,335.59,178.83Z" style="fill: rgb(38, 50, 56); transform-origin: 339.375px 178.165px;" id="elmuq8jrp7jh" class="animable"></path><path d="M295.18,239.43a5,5,0,0,0,.48,1.63,8.29,8.29,0,0,0,1.27,2.12,9.53,9.53,0,0,0,2.76,2.11s.69.32.73.36a13.06,13.06,0,0,0,2.07.86,13.43,13.43,0,0,0,4.39.85.78.78,0,0,1,.66.34,9.6,9.6,0,0,0,.59.83,6.76,6.76,0,0,1,.46.72,1.54,1.54,0,0,0,.87.81,7.55,7.55,0,0,0,2.4.4,28,28,0,0,0,5.9-.45c.9-.17,2.19-.41,3.32-.72a34.56,34.56,0,0,0,3.74-1.21,14.57,14.57,0,0,0,2.9-1.39,2.52,2.52,0,0,0,.93-.9c.1-.21.15-.39.26-.59.3-.55.59-1.11.87-1.66.43-.84.79-1.7,1.14-2.54a23.88,23.88,0,0,0,.95-2.51c.24-.86.5-1.73.69-2.62.32-1.49.59-3.05.81-4.67.1-.75.11-1.65.17-2.46a6.92,6.92,0,0,0-.17-2,2.86,2.86,0,0,0-.65-1.21,8.08,8.08,0,0,0-3.08-2,11.37,11.37,0,0,0-3.42-.69c-.5,0-1-.13-1.48-.14a30.92,30.92,0,0,0-14.9,3.1,27.94,27.94,0,0,0-3.06,1.66,16.39,16.39,0,0,0-2.54,2,7.15,7.15,0,0,0-1.5,1.89,3.54,3.54,0,0,0-.3.8c-.1.33-.1.34-.43.36a7.34,7.34,0,0,0-5.19,2.45,6.29,6.29,0,0,0-1.17,1.95A5.37,5.37,0,0,0,295.18,239.43Zm14.37-6.55a15.83,15.83,0,0,1-3.15-.27,1.73,1.73,0,0,1-.72-.22,5.75,5.75,0,0,1,1.41-1.78,12.94,12.94,0,0,1,1.2-.9,17.38,17.38,0,0,1,2.2-1.25,32.54,32.54,0,0,1,3.3-1.36,21.41,21.41,0,0,1,5.9-1.21,31.66,31.66,0,0,1,4.12-.12,15.67,15.67,0,0,1,4,.61,5.85,5.85,0,0,1,2.84,1.68.6.6,0,0,1-.08.08c-.1.08-.2.17-.3.24a7.79,7.79,0,0,1-.85.56,18.45,18.45,0,0,1-3.52,1.5l-.83.26a3.62,3.62,0,0,1-.47.13c-.9.28-1.81.48-2.72.68s-1.79.35-2.68.47c-.69.08-1.5.21-2,.3a.26.26,0,0,1-.12,0s0,0-.05,0l-.3.06-2.27.27c-.7.07-1.44.18-2.2.23S310.47,232.89,309.55,232.88Zm-9.44,4.75a2.83,2.83,0,0,1,1.81-1.81,4.24,4.24,0,0,1,.66-.19c.24,1.19.59,2.28.89,3.37a36,36,0,0,0,1.48,4.13,5.75,5.75,0,0,0,1.1,1.83c-.15-.08-.82-.38-1-.46a10.78,10.78,0,0,1-2.64-1.88,8.29,8.29,0,0,1-2-2.47A3.27,3.27,0,0,1,300.11,237.63Z" style="fill: rgb(144, 202, 249); transform-origin: 314.362px 236.572px;" id="el5gddh9a8n4c" class="animable"></path><g id="elo0nnbvi38f9"><path d="M304.66,233.28c2.22,1.2,5.77.91,13.19-.06s11.85-2.56,13.75-4.58c1.26-1.33.67-3.15-.26-4.23a8.72,8.72,0,0,0-1.72-.88,11.31,11.31,0,0,0-3.42-.69c-.49,0-1-.13-1.47-.15a30,30,0,0,0-14.91,3.12,27.71,27.71,0,0,0-3.05,1.65,16.07,16.07,0,0,0-1.56,1.15h0C303.59,230.17,303,232.4,304.66,233.28Zm1-.89a5.53,5.53,0,0,1,1.4-1.77c.39-.32.78-.63,1.2-.91a19.65,19.65,0,0,1,2.2-1.26,30.11,30.11,0,0,1,3.3-1.34,24.66,24.66,0,0,1,2.89-.81,26.67,26.67,0,0,1,3-.4,31.79,31.79,0,0,1,4.12-.13,15.6,15.6,0,0,1,4,.62,5.9,5.9,0,0,1,2.85,1.67l-.08.08a3.31,3.31,0,0,1-.3.25,6.38,6.38,0,0,1-.84.55,18.49,18.49,0,0,1-3.52,1.51l-.84.26-.46.13c-.9.25-1.81.48-2.72.67s-1.79.36-2.69.47c-.69.09-1.5.21-2,.3l-.11,0H317l-.25,0h-.06c-.72.1-1.47.18-2.27.28s-1.44.17-2.19.22-1.77,0-2.69,0a16.62,16.62,0,0,1-3.15-.27A1.53,1.53,0,0,1,305.67,232.39Z" style="fill: rgb(255, 255, 255); opacity: 0.7; transform-origin: 317.995px 228.36px;" class="animable"></path></g><path d="M305.68,232.39a1.73,1.73,0,0,0,.72.22,15.83,15.83,0,0,0,3.15.27c.92,0,1.81.05,2.68,0s1.5-.16,2.2-.23l2.27-.27.3-.06s0,0,.05,0a.26.26,0,0,0,.12,0c.53-.09,1.34-.22,2-.3.89-.12,1.8-.29,2.68-.47s1.82-.4,2.72-.68a3.62,3.62,0,0,0,.47-.13l.83-.26a18.45,18.45,0,0,0,3.52-1.5,7.79,7.79,0,0,0,.85-.56c.1-.07.2-.16.3-.24a.6.6,0,0,0,.08-.08,5.85,5.85,0,0,0-2.84-1.68,15.67,15.67,0,0,0-4-.61,31.66,31.66,0,0,0-4.12.12,21.41,21.41,0,0,0-5.9,1.21,32.54,32.54,0,0,0-3.3,1.36,18.7,18.7,0,0,0-2.2,1.25,12.94,12.94,0,0,0-1.2.9A5.63,5.63,0,0,0,305.68,232.39Z" style="fill: rgb(38, 50, 56); transform-origin: 318.15px 229.346px;" id="el025a8x2luoz1" class="animable"></path><g id="eln223brjiex"><path d="M305.62,230.16a8.72,8.72,0,0,1,.86-.95,24.72,24.72,0,0,1,8.83-4.68,21.68,21.68,0,0,1,5.26-.9c4.92-.28,8,.66,9.2,1.41a5.36,5.36,0,0,1,.86.68,1.73,1.73,0,0,1,.09,2.28,2.35,2.35,0,0,1-.33.3h0c-2.75-2.62-10.21-2.07-12.74-1.79-2.53.47-8.86,2.49-11.58,6h0a2.5,2.5,0,0,1-.38-.15A1.48,1.48,0,0,1,305.62,230.16Z" style="opacity: 0.3; transform-origin: 318.135px 228.045px;" class="animable"></path></g><path d="M340.53,197.67c-2.93-2.29-6.75-1.54-10.61-.58a11.82,11.82,0,0,0-4.11,1.62c-1.19.87-1.91,2.33-1.19,3.18s2.6,1.1,2.27,2.28c-3.15,1.92-7,2.3-10.32,3.45A14.79,14.79,0,0,0,310.3,212a3.91,3.91,0,0,0-1.18,1.94c-.17,1.21,1,1.86,2.1,2.24.2.07.18.4,0,.52a9.25,9.25,0,0,0-2.18,1.67h0c-.41.44-.11,1.09.41.94l.19-.05c1.41-.34,2.51.25,2.55,1.35a2.81,2.81,0,0,1-2.4,2.52c-.34.08-.09.5.4.53A7,7,0,0,0,313,223a4.23,4.23,0,0,0,2.72-2.18c.56-1.28.25-3.23-.75-3.25a60.87,60.87,0,0,0,6.89-2.29,5,5,0,0,0,2.69-2c.51-1-.17-2.39-1.24-2.08,3.12-1.49,6.4-2.5,9.47-3.8a24.81,24.81,0,0,0,8.18-5.27,3.32,3.32,0,0,0,1-1.7A3.12,3.12,0,0,0,340.53,197.67Z" style="fill: rgb(255, 255, 255); transform-origin: 325.406px 209.91px;" id="eletmedakstn" class="animable"></path><path d="M271.59,271.3v-.68q-.25-15.53-.57-31.05-.28-14.49-.54-29v-.37l2.7-.86c28.15-8.92,57.26-18.15,87.15-15.58l.42,0,0,.42c1.85,22.37,3,41.95,3.62,59.85l0,.54-.54,0c-33-1.36-64.84,7.57-91.63,16.48ZM271.47,211q.24,14.3.54,28.6.28,15.19.56,30.37c26.59-8.81,58.1-17.57,90.8-16.33-.58-17.63-1.75-36.89-3.56-58.85-29.56-2.43-58.42,6.72-86.35,15.58Z" style="fill: rgb(144, 202, 249); transform-origin: 317.425px 232.312px;" id="el5ha8czeb0p8" class="animable"></path><path d="M151.38,135.37l1.75.23c.08,4.52-.15,4.85-.31,8.49l-2-.2A78.72,78.72,0,0,0,151.38,135.37Z" style="fill: rgb(144, 202, 249); transform-origin: 151.983px 139.73px;" id="elv42d59s2cpq" class="animable"></path><path d="M162.59,137.28c.24,4.31.16,4.8.21,8.33l-1.64-.3c-1.74-2.46-2.6-3.62-4.25-5.83,0,1.93,0,3-.06,5.13l-2-.27c.08-3.62.26-4,.12-8.46l1.53.26c1.73,3,2.61,3,4.26,6.07a48.64,48.64,0,0,0-.13-5.32Z" style="fill: rgb(144, 202, 249); transform-origin: 158.825px 140.745px;" id="elegbh356oov" class="animable"></path><path d="M164.15,145.06c.26-.5.39-.73.64-1.16a7.69,7.69,0,0,0,2.83,1.37c1.16.26,1.62,0,1.62-.4,0-1.32-4.89-1.91-5-4.73,0-1.29,1-2.48,3.5-1.9a7.1,7.1,0,0,1,3,1.59,13.35,13.35,0,0,1-.56,1.33,6.36,6.36,0,0,0-2.39-1.19c-1.18-.28-1.62,0-1.6.52.05,1.41,4.92,2.16,4.94,4.72,0,1.17-1.12,2.08-3.53,1.55A8.46,8.46,0,0,1,164.15,145.06Z" style="fill: rgb(144, 202, 249); transform-origin: 167.64px 142.502px;" id="elkqivnbbmh7" class="animable"></path><path d="M174.13,141.7c-1.06-.29-1.6-.43-2.69-.7,0-.61,0-.93-.05-1.71,3,.75,4.47,1.15,7.28,2,0,.75,0,1.07,0,1.7-1-.3-1.54-.44-2.59-.73,0,2.67-.09,3.69-.17,6.45l-1.84-.5C174.09,145.39,174.15,144.35,174.13,141.7Z" style="fill: rgb(144, 202, 249); transform-origin: 175.03px 144px;" id="elssl1nefqqsn" class="animable"></path><path d="M184.73,151.36a25.26,25.26,0,0,0-1.62-2.67l-.11,0-1.81-.56c-.05.8-.07,1.15-.12,2.09-.81-.25-1.06-.33-1.76-.53.18-3.37.29-4.15.36-8.13,1.37.4,1.79.52,3.64,1.1,2.85.89,4.18,2.72,4,4.52a2,2,0,0,1-2.11,1.91,28.87,28.87,0,0,1,1.7,3Zm-1.62-7.07-1.68-.53c-.05,1.17-.08,1.65-.15,2.85l1.68.53c1.41.45,2.11.14,2.19-.74S184.59,144.75,183.11,144.29Z" style="fill: rgb(144, 202, 249); transform-origin: 183.318px 146.825px;" id="elhlqodu1uw4" class="animable"></path><path d="M188.57,149.25c.22-1.82.33-2.59.52-4.72l1.71.59c-.18,2.1-.28,2.91-.48,4.68-.18,1.53.38,2.28,1.27,2.62s1.55,0,1.63-1.59c.1-1.8.15-2.73.24-4.86l1.94.63c-.11,2.15-.16,3.07-.27,4.93-.15,2.45-1.8,3.12-3.69,2.4A4.2,4.2,0,0,1,188.57,149.25Z" style="fill: rgb(144, 202, 249); transform-origin: 191.957px 149.367px;" id="ela81vscd724b" class="animable"></path><path d="M196.54,151.51a3.17,3.17,0,0,1,4.63-2.92,5.81,5.81,0,0,1,3.09,2.89,6.17,6.17,0,0,1-1.17.79,4.31,4.31,0,0,0-1.91-1.83,1.84,1.84,0,0,0-2.72,1.75,3.94,3.94,0,0,0,2.41,3.8,1.79,1.79,0,0,0,2-.26l1.1,1.75c-.78.77-1.95.82-3.35.21A6.67,6.67,0,0,1,196.54,151.51Z" style="fill: rgb(144, 202, 249); transform-origin: 200.399px 153.17px;" id="elolg102fw03l" class="animable"></path><path d="M206.85,152.81l-2.34-.95c0-.74,0-1.05.05-1.73,2.58,1.07,3.8,1.54,6.73,2.78,0,.65,0,.93-.07,1.69-1.05-.45-1.58-.67-2.68-1.11,0,3.25-.08,4.24-.19,7.47l-1.72-.78C206.75,157,206.83,156,206.85,152.81Z" style="fill: rgb(144, 202, 249); transform-origin: 207.9px 155.545px;" id="elqomeu9pfntm" class="animable"></path><path d="M212.33,153.36c.76.33,1.14.49,1.89.83-.26,3.28-.35,5.1-.67,9.15l-1.81-.84C212,158.48,212.1,156.72,212.33,153.36Z" style="fill: rgb(144, 202, 249); transform-origin: 212.98px 158.35px;" id="elme7dd18wj8" class="animable"></path><path d="M215.32,158.89c.23-2.64,2.17-3.39,4.56-2.27a6.29,6.29,0,0,1,4,5.93c-.13,2.69-2.06,4.8-4.55,3.64S215.1,161.52,215.32,158.89Zm6.71,2.88a3.49,3.49,0,0,0-2.22-3.51c-1.37-.61-2.49-.27-2.63,1.42a4.69,4.69,0,0,0,2.23,4.38C220.82,164.7,221.93,163.47,222,161.77Z" style="fill: rgb(144, 202, 249); transform-origin: 219.591px 161.316px;" id="el6u64nc2zwhk" class="animable"></path><path d="M231.64,162.3c0,2.8.13,5.25.09,9.89-.14-.08-.53-.35-.89-.54-1.08-3.37-2-6-3.69-8.46.13,1.72.18,4,.28,6.73-.83-.43-1.28-.66-2.17-1.09,0-4.39,0-6.59-.06-9.56l1.38.66c1.54,2.5,2.71,3.48,4.06,6.86-.17-2.83-.1-3.14-.31-4.95C231,162.14,231,162,231.64,162.3Z" style="fill: rgb(144, 202, 249); transform-origin: 228.469px 165.73px;" id="el8joh9ccou4s" class="animable"></path><path d="M175.08,164.15c.1-2.2.14-3.13.22-5.32-1,1.56-1.57,2.24-2.71,3.75l-.92-.22c-.9-1.93-1.34-2.83-2.2-4.8-.18,2.13-.28,3.07-.48,5.14l-2-.43c.39-3.49.56-5.13.92-8.73l1.61.36c1.06,2.53,1.62,3.73,2.76,6.2,1.4-1.88,2.06-2.73,3.32-4.7l1.49.4c-.1,3.68-.12,5.11-.23,8.82C176.19,164.43,175.82,164.33,175.08,164.15Z" style="fill: rgb(144, 202, 249); transform-origin: 172.04px 159.08px;" id="elfcvm17mxqu" class="animable"></path><path d="M184.66,164.91c-1.73-.56-2.85-.9-4.27-1.3-.27.68-.41,1-.71,1.76-.74-.21-1.12-.32-1.9-.52,1.56-3.34,2.05-4.57,3.65-7.79.79.24,1.26.39,2.08.66,1.6,4.23,2.54,5.72,4.1,10.2-.8-.29-1.22-.45-2.11-.75C185.17,166.22,185,165.78,184.66,164.91Zm-.7-1.76c-.62-1.53-.93-2.58-1.51-3.87a18.26,18.26,0,0,0-1.46,3C182,162.54,182.77,162.77,184,163.15Z" style="fill: rgb(144, 202, 249); transform-origin: 182.695px 162.49px;" id="el6r53om2oq7p" class="animable"></path><path d="M195,162c-.06,3.82,0,4.78-.06,8.77l-1.45-.6c-1.52-3.05-2-4.06-3.55-6.85.08,2.25.12,3.09.17,5.52l-1.69-.65c-.09-4-.21-5.12-.3-8.9l1.45.55c1.52,2.85,2.05,3.91,3.62,6.64,0-2.08,0-2.93,0-5.23C193.93,161.58,194.3,161.73,195,162Z" style="fill: rgb(144, 202, 249); transform-origin: 191.56px 165.03px;" id="el4ij09pc6cx5" class="animable"></path><path d="M196.79,167.68c0-1.87,0-2.7.09-4.87l1.86.8c-.07,2.16-.1,3-.13,4.82a2.86,2.86,0,0,0,1.66,3c1.1.49,1.76.13,1.81-1.38.07-1.76.11-2.68.22-4.88l1.79.8c-.12,2.26-.17,3.22-.24,5-.11,2.29-1.47,3.34-3.65,2.36A6,6,0,0,1,196.79,167.68Z" style="fill: rgb(144, 202, 249); transform-origin: 200.438px 168.253px;" id="el3t7zl8catk7" class="animable"></path><path d="M210.68,175.7l-3.82-1.65a13.82,13.82,0,0,0-.83,1.68l-1.79-.78c1.47-3.31,2.33-3.66,3.88-7.18l1.72.78c1.25,4.81,1.93,5.83,3.56,10.35l-2-.86C211.09,177.08,211,176.61,210.68,175.7Zm-.58-1.55c-.52-1.28-.75-2.33-1.2-3.83a28.93,28.93,0,0,1-1.37,2.68Z" style="fill: rgb(144, 202, 249); transform-origin: 208.82px 173.335px;" id="eliqbltox6uj" class="animable"></path><path d="M214.14,170.48l1.85.83c0,3.54.12,4,.1,7L220,180c0,.69,0,1.05,0,1.76l-5.8-2.47C214.07,175.38,214.14,174.8,214.14,170.48Z" style="fill: rgb(144, 202, 249); transform-origin: 217.061px 176.12px;" id="elchoxomfyh3" class="animable"></path></g><g id="freepik--Graphics--inject-19" class="animable" style="transform-origin: 230.142px 193.813px;"><polygon points="224.88 131.44 232.73 127.01 240.54 146.06 224.88 131.44" style="fill: rgb(144, 202, 249); transform-origin: 232.71px 136.535px;" id="elk6m3z63v5kp" class="animable"></polygon><polygon points="267.59 139.14 260.51 133.56 249.88 151.19 267.59 139.14" style="fill: rgb(144, 202, 249); transform-origin: 258.735px 142.375px;" id="elyjjuymuwnqs" class="animable"></polygon><polygon points="241.79 121.78 252.34 122.78 247.08 146.43 241.79 121.78" style="fill: rgb(144, 202, 249); transform-origin: 247.065px 134.105px;" id="elp0eupuk5jr" class="animable"></polygon><path d="M320,65.9a.51.51,0,0,1-.49-.41.49.49,0,0,1,.4-.58c3.28-.64,6.59-1.19,9.83-1.65a.5.5,0,0,1,.14,1c-3.22.46-6.51,1-9.78,1.64Z" style="fill: rgb(144, 202, 249); transform-origin: 324.908px 64.5776px;" id="el6qd6ra62eyg" class="animable"></path><path d="M277.91,78.42a.5.5,0,0,1-.19-1,236.05,236.05,0,0,1,37.76-11.64.51.51,0,0,1,.6.39.49.49,0,0,1-.38.59,235.41,235.41,0,0,0-37.6,11.58A.46.46,0,0,1,277.91,78.42Z" style="fill: rgb(144, 202, 249); transform-origin: 296.699px 72.0993px;" id="elhmgylobgpl" class="animable"></path><path d="M187.31,324.37H176.22a.5.5,0,0,1-.5-.5.5.5,0,0,1,.5-.5h11.09a.5.5,0,0,1,.5.5A.5.5,0,0,1,187.31,324.37Z" style="fill: rgb(144, 202, 249); transform-origin: 181.765px 323.87px;" id="eltg6hecbe8i" class="animable"></path><path d="M170.28,324.37H130.47a.5.5,0,0,1-.5-.5.5.5,0,0,1,.5-.5h39.81a.51.51,0,0,1,.5.5A.5.5,0,0,1,170.28,324.37Z" style="fill: rgb(144, 202, 249); transform-origin: 150.375px 323.87px;" id="elrurlnljtv88" class="animable"></path></g><g id="freepik--Character--inject-19" class="animable" style="transform-origin: 227.445px 287.273px;"><g id="freepik--group--inject-19" class="animable" style="transform-origin: 227.445px 287.273px;"><path d="M220.78,194.09a5,5,0,1,1,8.95,4.47v.08c-1.79,3.7-3.56,7.59-5.24,11.41s-3.29,7.68-4.59,11.52c-.34,1-.63,1.91-.91,2.87l-.16.52a.77.77,0,0,0-.07.26,4,4,0,0,0-.06.84,17.68,17.68,0,0,0,1.14,5,88.21,88.21,0,0,0,5.2,11.1l.06.11a2.5,2.5,0,0,1-4,2.94,49.81,49.81,0,0,1-8.37-10.9,23.49,23.49,0,0,1-2.73-7.28,12.8,12.8,0,0,1-.15-2.4,11.36,11.36,0,0,1,.32-2.39c.25-1.13.5-2.27.8-3.36a109.63,109.63,0,0,1,4.27-12.75c1.68-4.11,3.46-8.09,5.55-12.1Z" style="fill: rgb(203, 122, 99); transform-origin: 220.051px 218.659px;" id="elmvbglyg3ca" class="animable"></path><path d="M222.23,242.13l-.7.52a2,2,0,0,0-.77,2.2,9.68,9.68,0,0,0,2.64,4.09l4.9-5.85-4.21-1.28A2.07,2.07,0,0,0,222.23,242.13Z" style="fill: rgb(203, 122, 99); transform-origin: 224.49px 245.328px;" id="elfulhh1abz97" class="animable"></path><polygon points="228.32 243.09 223.42 248.94 228.9 250.88 234.16 246.6 228.32 243.09" style="fill: rgb(203, 122, 99); transform-origin: 228.79px 246.985px;" id="el21xdmtdjuoc" class="animable"></polygon><path d="M251.82,163.13c.34-.07.71.29.82.81s-.07,1-.41,1.07-.71-.29-.82-.81S251.48,163.19,251.82,163.13Z" style="fill: rgb(38, 50, 56); transform-origin: 252.025px 164.07px;" id="elx93gjkmk78" class="animable"></path><path d="M252.89,170a3,3,0,0,0,2.39-1,19.17,19.17,0,0,1-3.44-3.92Z" style="fill: rgb(183, 77, 60); transform-origin: 253.56px 167.542px;" id="el01kwacb74gc4" class="animable"></path><path d="M249.1,161.66a2.51,2.51,0,0,1,2.09-.91h0l.1,0a.32.32,0,0,0,0-.64,3.1,3.1,0,0,0-2.63,1.06.32.32,0,0,0-.08.21.31.31,0,0,0,.31.32A.29.29,0,0,0,249.1,161.66Z" style="fill: rgb(38, 50, 56); transform-origin: 250.095px 160.901px;" id="elcxbois0evlp" class="animable"></path><path d="M245.65,193.42c-9,.09-10.34-4.79-10.34-4.79,2.67-2.6,2.8-7.39,2.23-11.66a9.6,9.6,0,0,0,2.67,2.55,8.2,8.2,0,0,0,6.57,1.18.19.19,0,0,0,.11,0,1.19,1.19,0,0,0,0,.26c-.54,3.42-.06,7.08,3.53,8.15C250.37,189.07,255.53,193.31,245.65,193.42Z" style="fill: rgb(203, 122, 99); transform-origin: 243.516px 185.196px;" id="el956izsvcigc" class="animable"></path><path d="M247.14,179.4a10,10,0,0,0-.25,1.26.19.19,0,0,1-.11,0,8.2,8.2,0,0,1-6.57-1.18,9.6,9.6,0,0,1-2.67-2.55c-.13-1.08-.33-2.14-.53-3.1l9.76,5.33Z" style="fill: rgb(203, 122, 99); transform-origin: 242.075px 177.364px;" id="elt9g0t4nm0i" class="animable"></path><path d="M232.58,189.46s1.42-4.38,3.56-5.76,11.53.05,13,.63,3,4,3,4Z" style="fill: rgb(144, 202, 249); transform-origin: 242.36px 186.289px;" id="elw7gtx0tt1b" class="animable"></path><path d="M231.4,203.19a19.73,19.73,0,0,1-7.57,11.48L213.41,207s6.15-16.91,12.31-18.4C232,187.11,233.41,194.89,231.4,203.19Z" style="fill: rgb(38, 50, 56); transform-origin: 222.831px 201.543px;" id="el2xlqsguoldg" class="animable"></path><g id="el98moyb7f5yc"><path d="M231.68,201.71c-.08.49-.19,1-.31,1.48a19.73,19.73,0,0,1-7.55,11.48l-.55-.42a21.44,21.44,0,0,1,5.64-13.9Z" style="opacity: 0.2; isolation: isolate; transform-origin: 227.475px 207.51px;" class="animable"></path></g><polygon points="212.07 203.25 210.75 208.53 223.78 216.95 225.98 212.79 212.07 203.25" style="fill: rgb(144, 202, 249); transform-origin: 218.365px 210.1px;" id="elkz87adib3da" class="animable"></polygon><path d="M255,187.59c-1.45-.24-3.07-.46-4.73-.59a129.61,129.61,0,0,0-15,.16,62,62,0,0,0-9.56,1.46c2.56,35.25,1,52.53.44,57.57l35.3-.38c3.65-29.06,2.64-43.71,1.22-50.82A9.38,9.38,0,0,0,255,187.59Z" style="fill: rgb(38, 50, 56); transform-origin: 244.836px 216.523px;" id="elm2vc54cqipg" class="animable"></path><g id="el64aifnp61z"><path d="M261.18,245.81h.31c2.26-18.2,2.72-30.74,2.39-39.32l-15.52-9C250.74,221.71,257.06,232.77,261.18,245.81Z" style="opacity: 0.2; isolation: isolate; transform-origin: 256.168px 221.65px;" class="animable"></path></g><path d="M253.56,172.08a9.08,9.08,0,0,1-4.42,7.63h0s0,0,0,0a7.63,7.63,0,0,1-2.2.93.19.19,0,0,1-.11,0,8.2,8.2,0,0,1-6.57-1.18,9.6,9.6,0,0,1-2.67-2.55c-1.76-2.41-2.49-5.62-3.75-10.15A8.95,8.95,0,0,1,244,155.52C250.79,156.72,253.69,166,253.56,172.08Z" style="fill: rgb(203, 122, 99); transform-origin: 243.535px 168.132px;" id="el9h6kiaokigd" class="animable"></path><g id="elwdhvr1ne79m"><path d="M249.09,179.73a7.63,7.63,0,0,1-2.2.93s.24-4,.24-4S248.62,179.73,249.09,179.73Z" style="opacity: 0.2; transform-origin: 247.99px 178.66px;" class="animable"></path></g><path d="M249.64,168.63a10,10,0,0,1-4,7.1,2.93,2.93,0,0,1-1,.46c-1.14.26-2.21-.72-2.73-1.77a11,11,0,0,1-.87-4.44c-.13-3.57.31-7.49,2.83-10a3.38,3.38,0,0,1,2.18-1.15C249.28,158.67,249.86,166.58,249.64,168.63Z" style="fill: rgb(38, 50, 56); transform-origin: 245.351px 167.53px;" id="eleo7e93zqexd" class="animable"></path><path d="M249.78,155.87a7.87,7.87,0,0,0-3.6-2,22.23,22.23,0,0,0-5.92-1.13,8.48,8.48,0,0,0-5.64,1.82c-1.7,1.46-2.51,3.67-3.26,5.78L230,164.12a3.83,3.83,0,0,0,.4,4.27q1.86,3,3.73,6a9,9,0,0,1,1.28,2.76,2.94,2.94,0,0,1-.78,2.8,4.59,4.59,0,0,0,3.16-1.89,3.43,3.43,0,0,1-1.41,3.07,8.88,8.88,0,0,0,3.74-2.62,3.56,3.56,0,0,1-1.12,1.66c2,.3,3.64-1.5,4.78-3.17,1.41-2.06,2.73-4.66,1.73-6.94-.33-.75-.89-1.39-1.22-2.15a5.17,5.17,0,0,1,.93-5,15.23,15.23,0,0,1,4.09-3.38S251.3,157.54,249.78,155.87Z" style="fill: rgb(38, 50, 56); transform-origin: 239.941px 166.931px;" id="elfm0op7jf5b" class="animable"></path><path d="M248,163.88c1.88.56,2.87,3.34,3,5.1.09,2-1.21,3.18-2.91,1.88a7.49,7.49,0,0,1-2.61-4C245,165,246.12,163.33,248,163.88Z" style="fill: rgb(203, 122, 99); transform-origin: 248.187px 167.59px;" id="elymq6m0mq7" class="animable"></path><path d="M244.68,413.55a.15.15,0,0,1-.13-.13.14.14,0,0,1,.07-.17c.13-.06,2.55-1.5,3.72-1.21a.78.78,0,0,1,.54.38.62.62,0,0,1,0,.72c-.28.41-1.11.55-2,.57A12.24,12.24,0,0,1,244.68,413.55Zm3.25-1.24a7.6,7.6,0,0,0-2.73.95c1.31.16,3.08.11,3.4-.34.07-.07.11-.16,0-.37a.51.51,0,0,0-.34-.23,1.16,1.16,0,0,0-.32,0Z" style="fill: rgb(144, 202, 249); transform-origin: 246.769px 412.857px;" id="elilxnoolmu7" class="animable"></path><path d="M244.61,413.52a.21.21,0,0,1-.07-.15,4.35,4.35,0,0,1,1-2.72,1.17,1.17,0,0,1,.93-.3c.46,0,.62.27.63.45.15.81-1.48,2.33-2.33,2.73h-.06A.17.17,0,0,1,244.61,413.52Zm1.77-2.85a.83.83,0,0,0-.58.25,4,4,0,0,0-.88,2.18c.86-.54,2-1.75,1.87-2.23,0,0,0-.18-.33-.18h-.09Z" style="fill: rgb(144, 202, 249); transform-origin: 245.825px 411.938px;" id="eldy72ad1qrga" class="animable"></path><polygon points="237.29 397.37 244.28 397.24 244.02 413.38 237 413.52 237.29 397.37" style="fill: rgb(203, 122, 99); transform-origin: 240.64px 405.38px;" id="el90bnsye7haj" class="animable"></polygon><path d="M245.66,413.09c4.84,2.83,6.31,2.93,11.86,4,1.21.24.5,3.17-2.39,3.23-4.78.09-5.28-.12-9.36-.05-3.49.07-7.49.31-10.27.41a1.06,1.06,0,0,1-.25,0,1,1,0,0,1-.79-1.21l1.23-6.27a.63.63,0,0,1,.59-.49l7.68-.14A3.22,3.22,0,0,1,245.66,413.09Z" style="fill: rgb(38, 50, 56); transform-origin: 246.259px 416.629px;" id="el5rqovatmxn9" class="animable"></path><g id="elt23f8kdb36"><polygon points="237.28 397.38 237.14 405.68 244.15 405.54 244.28 397.25 237.28 397.38" style="opacity: 0.2; isolation: isolate; transform-origin: 240.71px 401.465px;" class="animable"></polygon></g><path d="M186.09,414.6a.17.17,0,0,1-.13.14.15.15,0,0,1-.17-.09c-.07-.12-1.46-2.55-1.14-3.72a.91.91,0,0,1,.38-.53.63.63,0,0,1,.73,0c.41.29.52,1.12.53,2.06A12,12,0,0,1,186.09,414.6Zm-1.17-3.25a7.48,7.48,0,0,0,.88,2.73c.18-1.3.17-3.07-.28-3.39-.06-.07-.16-.11-.37,0a.46.46,0,0,0-.23.33,1.71,1.71,0,0,0,0,.32Z" style="fill: rgb(144, 202, 249); transform-origin: 185.446px 412.513px;" id="elg68as1nk0f" class="animable"></path><path d="M186.08,414.67a.17.17,0,0,1-.15.07c-.07,0-2-.13-2.7-1.06a1.2,1.2,0,0,1-.29-.93c.05-.45.28-.61.47-.61.8-.14,2.31,1.51,2.69,2.35v.07A.15.15,0,0,1,186.08,414.67Zm-2.84-1.78a.92.92,0,0,0,.24.57,3.93,3.93,0,0,0,2.17.9c-.53-.86-1.71-2-2.19-1.9,0,0-.19,0-.19.32v.11Z" style="fill: rgb(144, 202, 249); transform-origin: 184.518px 413.436px;" id="elxlynau2wep" class="animable"></path><polygon points="189.71 398.26 196.53 398.61 192.85 414.96 185.99 414.6 189.71 398.26" style="fill: rgb(203, 122, 99); transform-origin: 191.26px 406.61px;" id="elep2kjsfylbl" class="animable"></polygon><path d="M184.33,413.74c-1.84,2.22-2.81,3.36-8.18,5.15-1.18.39-.11,3.21,2.77,2.9,4.76-.51,2.13-.45,6.19-.89,3.47-.38,7.47-.64,10.24-.89a1.28,1.28,0,0,0,.27-.05,1,1,0,0,0,.65-1.3l-2-6.06a.61.61,0,0,0-.65-.41L186,413A2.36,2.36,0,0,0,184.33,413.74Z" style="fill: rgb(38, 50, 56); transform-origin: 186.004px 417px;" id="eleh4zjepi0nj" class="animable"></path><g id="elguh5lkfgpmv"><polygon points="189.7 398.27 187.8 406.67 194.63 407.02 196.53 398.61 189.7 398.27" style="opacity: 0.2; isolation: isolate; transform-origin: 192.165px 402.645px;" class="animable"></polygon></g><path d="M226.16,246.19a103.26,103.26,0,0,0-5.94,13.59A110.59,110.59,0,0,0,214.74,282c-2,12.1-3,21.12-5.14,30.32-6.62,28.78-23.25,89.58-23.25,89.58l12.37,2.45s24-70.74,30.07-91.35c5.46-18.55,19.43-67.28,19.43-67.28Z" style="fill: rgb(144, 202, 249); transform-origin: 217.285px 325.035px;" id="el70xe4xllnk2" class="animable"></path><g id="eln836pmfhio"><path d="M226.16,246.19a103.26,103.26,0,0,0-5.94,13.59A110.59,110.59,0,0,0,214.74,282c-2,12.1-3,21.12-5.14,30.32-6.62,28.78-23.25,89.58-23.25,89.58l12.37,2.45s24-70.74,30.07-91.35c5.46-18.55,19.43-67.28,19.43-67.28Z" style="opacity: 0.5; transform-origin: 217.285px 325.035px;" class="animable"></path></g><path d="M184.86,399.62l0,4.38,14.86,1.29s1.22-4.81,1.16-4.81Z" style="fill: rgb(144, 202, 249); transform-origin: 192.871px 402.455px;" id="elo47e4oopc1m" class="animable"></path><g id="eleubbi4s6f5r"><path d="M241.76,268.14c-4.4,15.3-10,34.65-13,44.81-.14.49-.3,1-.45,1.54.9-16.88,3.62-45.2,12.07-46.42A3.18,3.18,0,0,1,241.76,268.14Z" style="opacity: 0.3; isolation: isolate; transform-origin: 235.035px 291.258px;" class="animable"></path></g><path d="M237.51,245.89s-2.63,46.52-2.58,68.48c0,20.48.33,89.73.33,89.73l11.87-.23s6.85-70.65,8.52-91.47c1.59-19.72,5.81-66.59,5.81-66.59Z" style="fill: rgb(144, 202, 249); transform-origin: 248.195px 324.955px;" id="elbb5jgnznrl" class="animable"></path><g id="elw0ulbnqiy"><path d="M237.51,245.89s-2.63,46.52-2.58,68.48c0,20.48.33,89.73.33,89.73l11.87-.23s6.85-70.65,8.52-91.47c1.59-19.72,5.81-66.59,5.81-66.59Z" style="opacity: 0.5; transform-origin: 248.195px 324.955px;" class="animable"></path></g><path d="M233.42,400l.49,4.34,14.43-.28s.58-4.89.52-4.89Z" style="fill: rgb(144, 202, 249); transform-origin: 241.142px 401.755px;" id="elcsux8df279a" class="animable"></path><path d="M271.85,221.16c3.39.38,6.45-4.13,7.12-7.47,1.15-5.71-2-11.32-5.08-16.28l-11.08-18c-.53-.86,2.85,4.64,1,1.35-1-1.84-4.63-1.86-6.08,1.19,3.88,7.11,4.58,13,6.87,20.77a10.75,10.75,0,0,1,.57,5.54c-.83,3.39-7.69.59-6,3.88C260.39,214.56,264.63,220.33,271.85,221.16Z" style="fill: rgb(203, 122, 99); transform-origin: 268.471px 200.25px;" id="eldnb8j9dqpaa" class="animable"></path><path d="M261.15,191.17c6,5.6,9,16.86,9,16.86l-10.66,5.75s-12.71-10.44-11-19.38C249.76,187.55,253.81,184.22,261.15,191.17Z" style="fill: rgb(38, 50, 56); transform-origin: 259.241px 200.554px;" id="elx07y7w2tyz" class="animable"></path><polygon points="253.81 211.17 257.15 215.26 271.83 207.22 269.98 202.62 253.81 211.17" style="fill: rgb(144, 202, 249); transform-origin: 262.82px 208.94px;" id="el1ubvv0xrnum" class="animable"></polygon><path d="M264.38,182c-1-2-3.22-6.18-4.2-8.23a2.15,2.15,0,0,0-.65-.89,2.3,2.3,0,0,0-.81-.28c-2.21-.41-4.51-.83-6.67-.22a.83.83,0,0,0-.43.24.9.9,0,0,0-.13.4c-.16,1.23-.33,2.46-.5,3.68a1.75,1.75,0,0,0,0,.82,1.71,1.71,0,0,0,.51.63c1.06.92,2.11,1.85,3.16,2.78a4.16,4.16,0,0,0,1.81,1.1c1.07.23,2.1-.4,3.11-.83S264.38,182,264.38,182Z" style="fill: rgb(203, 122, 99); transform-origin: 257.661px 177.076px;" id="elk7lo8kaajza" class="animable"></path></g></g><defs>     <filter id="active" height="200%">         <feMorphology in="SourceAlpha" result="DILATED" operator="dilate" radius="2"></feMorphology>                <feFlood flood-color="#32DFEC" flood-opacity="1" result="PINK"></feFlood>        <feComposite in="PINK" in2="DILATED" operator="in" result="OUTLINE"></feComposite>        <feMerge>            <feMergeNode in="OUTLINE"></feMergeNode>            <feMergeNode in="SourceGraphic"></feMergeNode>        </feMerge>    </filter>    <filter id="hover" height="200%">        <feMorphology in="SourceAlpha" result="DILATED" operator="dilate" radius="2"></feMorphology>                <feFlood flood-color="#ff0000" flood-opacity="0.5" result="PINK"></feFlood>        <feComposite in="PINK" in2="DILATED" operator="in" result="OUTLINE"></feComposite>        <feMerge>            <feMergeNode in="OUTLINE"></feMergeNode>            <feMergeNode in="SourceGraphic"></feMergeNode>        </feMerge>            <feColorMatrix type="matrix" values="0   0   0   0   0                0   1   0   0   0                0   0   0   0   0                0   0   0   1   0 "></feColorMatrix>    </filter></defs></svg>